<?xml version="1.0" standalone="no"?>
<!DOCTYPE svg PUBLIC "-//W3C//DTD SVG 20010904//EN"
 "http://www.w3.org/TR/2001/REC-SVG-20010904/DTD/svg10.dtd">
<svg version="1.0" xmlns="http://www.w3.org/2000/svg"
 width="523.000000pt" height="391.000000pt" viewBox="0 0 523.000000 391.000000"
 preserveAspectRatio="xMidYMid meet">

<g transform="translate(0.000000,391.000000) scale(0.100000,-0.100000)"
fill="#ed1c24" stroke="none">
<path d="M0 1955 l0 -1955 1043 0 1042 1 -70 33 c-291 136 -544 389 -679 678
-148 316 -174 674 -75 1010 137 462 520 834 986 958 235 63 476 64 716 4 255
-64 452 -177 648 -373 216 -217 335 -440 396 -746 13 -67 18 -134 17 -260 -1
-147 -4 -186 -27 -286 -67 -288 -192 -515 -393 -711 -129 -125 -235 -201 -379
-269 l-80 -38 1043 -1 1042 0 0 1790 c0 985 -2 1790 -4 1790 -3 0 -11 -6 -19
-14 -16 -17 -95 -33 -342 -71 -689 -107 -1492 -299 -2270 -544 -104 -33 -191
-58 -193 -56 -10 10 306 178 528 280 547 253 1142 456 1685 575 77 17 210 46
295 65 85 19 192 40 238 47 69 9 82 14 82 30 0 17 -80 18 -2615 18 l-2615 0 0
-1955z"/>
<path d="M2425 2555 c-155 -25 -290 -71 -428 -148 -75 -43 -187 -123 -187
-136 0 -4 32 -12 70 -15 61 -6 74 -5 99 13 53 38 215 110 305 136 50 14 130
28 179 32 l90 6 41 45 c78 85 78 82 -11 81 -43 -1 -114 -7 -158 -14z"/>
<path d="M2392 2374 c-103 -18 -193 -49 -292 -100 -139 -72 -133 -63 -186
-268 -39 -149 -44 -180 -33 -191 52 -47 392 -325 399 -325 5 0 66 13 137 29
70 16 166 37 213 47 47 9 88 20 92 23 4 3 32 118 63 254 l55 248 -142 150
-143 149 -45 -1 c-25 -1 -78 -7 -118 -15z"/>
<path d="M3273 2335 c4 -26 7 -60 7 -74 0 -20 26 -53 108 -137 122 -124 184
-207 246 -325 l42 -82 63 -19 c35 -11 65 -17 68 -14 9 9 -36 125 -84 217 -83
159 -214 313 -353 415 -44 32 -86 61 -92 63 -8 3 -9 -11 -5 -44z"/>
<path d="M3105 2134 c-224 -62 -209 -55 -222 -99 -27 -92 -104 -457 -100 -469
9 -22 308 -377 322 -383 8 -2 105 20 217 49 l203 54 47 180 c25 98 47 193 47
211 1 38 -60 161 -120 242 -70 93 -230 251 -253 250 -12 -1 -75 -16 -141 -35z"/>
<path d="M1715 1720 c-60 -33 -133 -72 -162 -87 l-51 -26 -11 -74 c-28 -189
-21 -517 12 -565 6 -10 86 -62 177 -117 l165 -98 177 88 176 89 6 47 c3 27 10
122 16 213 6 91 13 185 16 211 l5 45 -200 167 c-110 92 -204 167 -208 167 -5
0 -57 -27 -118 -60z"/>
<path d="M1416 1685 c-66 -221 -73 -455 -20 -675 13 -52 20 -67 31 -63 11 4
13 16 9 42 -3 20 -9 113 -12 208 -5 133 -3 203 11 315 12 102 15 156 8 188
l-9 45 -18 -60z"/>
<path d="M2481 1233 c17 -32 41 -73 52 -92 l20 -34 18 34 c17 34 17 34 -14 92
-30 54 -34 57 -70 57 l-38 0 32 -57z"/>
<path d="M2697 1268 c-8 -13 -38 -65 -67 -117 -51 -90 -52 -95 -37 -120 21
-35 31 -36 48 -4 8 15 42 79 77 141 34 63 62 116 62 118 0 2 -16 4 -35 4 -25
0 -38 -6 -48 -22z"/>
<path d="M3480 1220 c-14 -5 -107 -30 -206 -56 l-182 -47 -98 -109 c-55 -61
-109 -122 -122 -136 -13 -15 -40 -45 -60 -67 -71 -78 -71 -57 -1 -243 l63
-169 280 -15 281 -16 84 86 c80 82 168 203 206 284 l18 36 -65 144 c-36 79
-83 182 -103 231 -40 90 -45 94 -95 77z"/>
<path d="M2048 796 l-178 -91 0 -201 0 -202 63 -40 c85 -55 187 -105 277 -135
76 -26 213 -57 249 -57 17 0 334 271 354 303 5 7 -18 80 -55 177 l-63 165 -60
24 c-72 29 -407 151 -409 150 0 -1 -81 -42 -178 -93z"/>
</g>
</svg>
