<?xml version="1.0" standalone="no"?>
<!DOCTYPE svg PUBLIC "-//W3C//DTD SVG 20010904//EN"
 "http://www.w3.org/TR/2001/REC-SVG-20010904/DTD/svg10.dtd">
<svg version="1.0" xmlns="http://www.w3.org/2000/svg"
 width="523.000000pt" height="391.000000pt" viewBox="0 0 523.000000 391.000000"
 preserveAspectRatio="xMidYMid meet">

<g transform="translate(0.000000,391.000000) scale(0.100000,-0.100000)"
fill="#000000" stroke="none">
<path d="M0 1955 l0 -1955 2615 0 2615 0 0 1955 0 1955 -2615 0 -2615 0 0
-1955z m3760 360 c167 -24 396 -85 521 -139 45 -20 23 -20 -31 -1 -62 22 -229
53 -349 65 -525 52 -1214 -97 -1931 -417 -199 -89 -210 -94 -210 -89 0 6 221
154 295 198 373 221 841 373 1235 402 98 7 362 -4 470 -19z m696 -216 c3 -5
-7 -4 -23 3 -41 17 -53 30 -15 17 18 -6 35 -15 38 -20z m-3212 -655 c-153
-280 -195 -356 -262 -481 -58 -109 -68 -123 -91 -123 -23 0 -32 10 -64 73 -20
39 -37 78 -37 85 0 7 75 147 166 312 l167 299 96 3 c53 2 100 0 104 -3 4 -3
-31 -78 -79 -165z m648 155 c375 -126 384 -645 14 -792 -75 -30 -211 -30 -291
1 -158 60 -258 194 -272 363 -25 294 268 523 549 428z m2506 -51 c21 -40 75
-138 119 -218 44 -80 97 -176 118 -215 22 -38 65 -116 96 -172 l57 -103 -107
0 -107 0 -17 33 c-17 34 -27 52 -205 373 -62 110 -112 206 -112 213 0 13 43
101 68 139 26 39 47 27 90 -50z m-3660 -87 c45 -82 82 -154 82 -161 0 -16 -90
-180 -99 -180 -7 0 -271 471 -271 483 0 4 46 7 103 7 l102 0 83 -149z m1982
118 c113 -54 183 -142 216 -270 43 -168 -44 -353 -205 -432 l-65 -32 -213 -3
-213 -3 2 248 3 248 83 3 82 3 0 -166 0 -165 105 0 c146 0 198 28 244 130 45
100 9 213 -89 273 -32 20 -52 22 -230 27 l-195 5 -3 83 -3 83 213 -3 c206 -3
215 -4 268 -29z m510 -60 l0 -90 -77 -80 c-43 -43 -81 -79 -85 -79 -5 0 -8 77
-8 170 l0 170 85 0 85 0 0 -91z m382 -101 l-192 -193 192 -192 193 -193 -120
0 -120 0 -132 132 -133 132 -35 -34 -35 -34 0 -98 0 -98 -85 0 -85 0 0 132 0
133 252 252 253 253 120 0 120 0 -193 -192z m611 -165 c26 -47 47 -91 47 -97
0 -6 -38 -78 -84 -161 l-83 -150 -107 -3 -108 -3 43 79 c24 43 87 156 139 250
52 95 97 172 100 172 3 0 27 -39 53 -87z"/>
<path d="M1655 1556 c-46 -14 -125 -58 -125 -68 0 -14 27 -8 81 16 30 13 73
27 96 31 23 4 47 13 54 21 10 12 5 14 -27 13 -22 0 -57 -6 -79 -13z"/>
<path d="M1667 1506 c-71 -19 -99 -44 -114 -102 l-13 -49 48 -42 c58 -53 76
-58 146 -43 52 11 56 14 66 48 6 20 13 55 16 77 5 37 2 44 -36 83 -46 46 -45
46 -113 28z"/>
<path d="M1960 1495 c0 -9 20 -40 45 -68 25 -29 51 -64 57 -79 16 -34 52 -47
42 -15 -18 58 -64 121 -115 158 -25 18 -29 18 -29 4z"/>
<path d="M1884 1438 l-41 -10 -16 -75 c-18 -84 -21 -75 51 -157 l30 -34 60 15
60 15 15 61 c18 70 12 89 -50 158 -37 41 -43 43 -109 27z"/>
<path d="M1478 1311 c-45 -25 -46 -27 -52 -86 -9 -95 2 -125 57 -159 l48 -30
54 27 53 26 4 73 4 73 -45 43 c-67 62 -70 63 -123 33z"/>
<path d="M1394 1254 c-3 -31 -3 -79 2 -107 8 -47 9 -42 11 56 1 59 0 107 -2
107 -2 0 -7 -25 -11 -56z"/>
<path d="M1955 1155 c-40 -11 -61 -25 -102 -70 l-52 -57 18 -47 19 -46 83 -9
84 -8 37 43 c21 24 41 52 44 62 8 26 -47 147 -66 146 -8 0 -37 -7 -65 -14z"/>
<path d="M1588 1044 l-48 -24 0 -59 c0 -56 2 -60 33 -79 17 -11 56 -27 86 -36
l54 -16 54 46 c57 49 57 49 28 117 -10 24 -26 35 -75 54 -74 27 -72 27 -132
-3z"/>
</g>
</svg>
