<?xml version="1.0" standalone="no"?>
<!DOCTYPE svg PUBLIC "-//W3C//DTD SVG 20010904//EN"
 "http://www.w3.org/TR/2001/REC-SVG-20010904/DTD/svg10.dtd">
<svg version="1.0" xmlns="http://www.w3.org/2000/svg"
 width="523.000000pt" height="391.000000pt" viewBox="0 0 523.000000 391.000000"
 preserveAspectRatio="xMidYMid meet">

<g transform="translate(0.000000,391.000000) scale(0.100000,-0.100000)"
fill="#000000" stroke="none">
<path d="M3285 2334 c-16 -2 -73 -9 -125 -14 -212 -24 -417 -76 -657 -168
-127 -49 -370 -165 -423 -202 -14 -9 -30 -19 -35 -21 -33 -13 -225 -146 -225
-156 0 -20 -21 -27 240 87 125 54 348 138 485 183 417 135 815 207 1145 207
103 0 338 -23 410 -39 56 -13 70 -13 70 -2 0 19 -172 69 -330 95 -183 31 -431
44 -555 30z"/>
<path d="M450 1607 c0 -14 71 -150 178 -339 40 -70 72 -132 72 -137 0 -6 8
-11 18 -11 11 0 26 19 41 51 13 27 35 67 48 87 l25 36 -30 56 c-157 292 -136
270 -253 270 -74 0 -99 -3 -99 -13z"/>
<path d="M1071 1523 c-30 -54 -76 -138 -104 -188 -27 -49 -65 -119 -85 -155
-19 -36 -42 -76 -52 -90 -9 -14 -24 -40 -33 -59 -17 -33 -16 -34 24 -112 37
-70 44 -79 70 -79 24 0 32 9 66 73 76 141 124 228 188 342 12 22 39 72 60 110
21 39 57 107 81 152 24 44 44 86 44 92 0 7 -35 11 -103 11 l-103 0 -53 -97z"/>
<path d="M1653 1611 c-143 -36 -269 -167 -302 -312 -59 -252 122 -499 379
-516 399 -28 607 457 312 728 -83 76 -147 101 -267 105 -49 2 -104 -1 -122 -5z
m107 -51 c0 -9 -61 -30 -89 -30 -7 0 -35 -11 -63 -25 -66 -33 -93 -33 -53 1
49 40 205 82 205 54z m18 -84 c43 -46 48 -63 33 -112 -5 -16 -12 -41 -15 -56
-5 -24 -13 -27 -78 -39 -55 -10 -73 -10 -76 -1 -2 7 -7 12 -11 12 -4 0 -26 17
-48 38 l-40 37 12 46 c7 26 15 51 18 57 9 14 76 45 117 53 19 4 37 7 41 8 3 0
24 -19 47 -43z m254 -30 c46 -49 83 -119 66 -125 -6 -2 -17 4 -23 13 -7 9 -21
28 -31 43 -11 14 -34 43 -51 63 -36 41 -47 83 -15 59 9 -7 34 -31 54 -53z
m-58 -6 c14 -5 26 -14 26 -20 0 -6 11 -28 25 -48 28 -41 30 -59 14 -130 l-12
-50 -61 -14 -60 -14 -48 56 -47 57 14 68 c8 37 17 71 20 74 6 5 76 27 97 30 4
1 18 -3 32 -9z m-382 -153 c28 -23 51 -46 50 -50 -1 -4 -2 -39 -2 -77 l0 -70
-53 -26 -54 -26 -44 27 c-24 15 -50 34 -56 43 -13 16 -17 110 -7 150 6 21 76
72 101 72 7 0 36 -19 65 -43z m-183 -84 c-1 -79 -3 -91 -10 -63 -8 32 -3 160
7 160 2 0 4 -44 3 -97z m652 -99 l29 -66 -21 -35 c-44 -72 -62 -80 -147 -75
-49 2 -81 9 -88 18 -15 18 -28 18 -21 0 9 -22 -88 -112 -116 -108 -33 4 -109
33 -134 51 -19 13 -22 26 -23 73 l0 58 53 25 52 26 69 -23 c56 -19 70 -28 78
-50 6 -16 14 -28 19 -28 11 0 10 8 0 35 -13 33 77 130 137 149 78 23 80 23
113 -50z"/>
<path d="M2248 1615 c-5 -5 -8 -45 -8 -91 l0 -82 198 -4 197 -3 41 -28 c28
-19 53 -49 74 -89 28 -52 32 -67 27 -109 -7 -59 -29 -103 -71 -142 -50 -47
-85 -57 -196 -57 l-100 0 0 165 0 165 -85 0 -85 0 0 -251 0 -250 218 3 c209 3
219 4 272 29 71 34 143 108 183 189 29 58 32 73 32 155 0 49 -6 109 -13 132
-18 59 -79 146 -133 187 -78 61 -133 74 -351 82 -106 3 -196 3 -200 -1z"/>
<path d="M3060 1450 c0 -137 3 -170 14 -170 7 0 45 33 85 73 l71 72 0 98 0 97
-85 0 -85 0 0 -170z"/>
<path d="M3315 1364 l-255 -255 0 -135 0 -134 85 0 85 0 0 93 c0 86 2 96 26
125 15 18 34 32 42 32 8 0 70 -56 139 -125 l124 -125 114 0 c70 0 115 4 115
10 0 6 -81 91 -180 189 -99 99 -180 183 -180 187 0 4 81 88 180 186 99 99 180
186 180 194 0 11 -21 14 -110 14 l-110 0 -255 -256z"/>
<path d="M4271 1540 l-42 -79 62 -113 c34 -62 76 -138 94 -168 17 -30 67 -119
111 -197 l79 -143 102 0 c69 0 103 4 103 11 0 6 -15 37 -34 68 -18 31 -65 116
-105 188 -39 73 -81 150 -93 170 -11 21 -45 81 -73 133 -116 210 -115 210
-139 210 -18 0 -31 -17 -65 -80z"/>
<path d="M4093 1218 c-104 -189 -120 -218 -160 -295 -20 -40 -35 -74 -32 -77
2 -3 49 -6 103 -7 86 -1 100 1 110 17 6 10 32 57 57 104 26 47 60 110 76 140
34 62 35 57 -30 173 -21 37 -42 67 -47 67 -5 0 -39 -55 -77 -122z"/>
</g>
</svg>
