<svg id="Capa_1" data-name="Capa 1" xmlns="http://www.w3.org/2000/svg" viewBox="0 0 618.6 651.37"><title>#jornada</title><rect x="0.13" y="46.58" width="495.58" height="495.58" rx="97.2" style="fill:#fff"/><path d="M98.7,46.58H396.9a97.2,97.2,0,0,1,97.2,97.2v36a0,0,0,0,1,0,0H1.5a0,0,0,0,1,0,0v-36A97.2,97.2,0,0,1,98.7,46.58Z" style="fill:#be1622;stroke:#fff;stroke-miterlimit:10;stroke-width:3px"/><rect x="79.55" y="253.57" width="48.44" height="48.44" style="fill:#be1622"/><rect x="79.7" y="318.78" width="48.44" height="48.44" style="fill:#be1622"/><rect x="79.7" y="383.84" width="48.44" height="48.44" style="fill:#be1622"/><rect x="155.31" y="253.65" width="48.44" height="48.44" style="fill:#be1622"/><rect x="155.47" y="318.86" width="48.44" height="48.44" style="fill:#be1622"/><rect x="155.47" y="383.91" width="48.44" height="48.44" style="fill:#be1622"/><rect x="228.59" y="253.65" width="48.44" height="48.44" style="fill:#be1622"/><rect x="228.75" y="318.86" width="48.44" height="48.44" style="fill:#be1622"/><rect x="228.75" y="383.91" width="48.44" height="48.44" style="fill:#be1622"/><rect x="296.91" y="253.73" width="48.44" height="48.44" style="fill:#be1622"/><rect x="367.7" y="253.81" width="48.44" height="48.44" style="fill:#be1622"/><rect x="367.86" y="319.02" width="48.44" height="48.44" style="fill:#be1622"/><rect x="367.86" y="384.07" width="48.44" height="48.44" style="fill:#be1622"/><rect x="296.91" y="319.02" width="48.44" height="48.44" style="fill:#be1622"/><rect x="296.91" y="384.07" width="48.44" height="48.44" style="fill:#be1622"/><rect x="142.27" width="26.7" height="83.84" rx="7.68" style="fill:#fff"/><rect x="338.75" y="0.62" width="26.7" height="83.84" rx="7.68" style="fill:#fff"/><circle cx="447.79" cy="480.56" r="163.68" style="fill:#fff"/><path d="M725.4,899.92c-93.63,0-169.81-76.18-169.81-169.81S631.77,560.3,725.4,560.3s169.81,76.17,169.81,169.81S819,899.92,725.4,899.92Zm0-330.59c-88.65,0-160.78,72.12-160.78,160.78S636.75,890.89,725.4,890.89s160.78-72.13,160.78-160.78S814.06,569.33,725.4,569.33Z" transform="translate(-277.62 -249.55)" style="fill:#be1622;stroke:#fff;stroke-miterlimit:10;stroke-width:2px"/><rect x="695.87" y="569.86" width="5.8" height="119.28" transform="translate(-414.48 -51.62) rotate(-14.7)" style="fill:#be1622"/><line x1="487.36" y1="458.11" x2="588.31" y2="403.08" style="fill:none;stroke:#be1622;stroke-miterlimit:10;stroke-width:7px"/><rect x="805.19" y="738.35" width="5.8" height="115.7" transform="translate(-591.27 715.86) rotate(-53.15)" style="fill:#be1622"/><rect x="641.99" y="830.43" width="114.56" height="5.8" transform="translate(-534.71 1102.22) rotate(-78.46)" style="fill:#be1622"/><rect x="617.85" y="670.07" width="5.8" height="118.08" transform="translate(-412.48 1067.77) rotate(-87.49)" style="fill:#be1622"/><polygon points="431.4 411.61 377.46 481.87 426.39 553.69 507 528.91 512.01 443.91 431.4 411.61" style="fill:#c12625;stroke:#be1622;stroke-miterlimit:10;stroke-width:7px"/><path d="M823.08,598.76" transform="translate(-277.62 -249.55)" style="fill:#333;stroke:#1d1d1b;stroke-miterlimit:10;stroke-width:7px"/><path d="M815.45,593.42l7.63,78,66,58.73S892,643.33,815.45,593.42Z" transform="translate(-277.62 -249.55)" style="fill:#c12625"/><path d="M891.77,736.38l-71.46-63.59L812,587.69l5,3.3c40.24,26.25,58.48,62.68,66.69,88.61,8.89,28.09,8.29,49.7,8.26,50.6ZM825.85,670,886,723.52a173.63,173.63,0,0,0-7.9-42.37c-7.59-23.86-24-56.93-59.19-81.86Z" transform="translate(-277.62 -249.55)" style="fill:#be1622"/><path d="M883.83,771.37l-68.38,26.1-30,84.95S854.35,861.52,883.83,771.37Z" transform="translate(-277.62 -249.55)" style="fill:#c12625"/><path d="M780.81,886.86l32.36-91.62,75.31-28.74-1.89,5.77c-15.46,47.26-41.82,75.41-61.21,90.71-21.1,16.64-38.36,22-39.09,22.22Zm36.93-87.16-27.47,77.78A141.87,141.87,0,0,0,822,858.25c17.89-14.16,41.93-39.71,57.08-82Z" transform="translate(-277.62 -249.55)" style="fill:#be1622"/><path d="M604.59,840.54h93.2l55.62,50.86S682.17,914.9,604.59,840.54Z" transform="translate(-277.62 -249.55)" style="fill:#c12625"/><path d="M725.21,897.83a142.29,142.29,0,0,1-17.48-1.1c-25.53-3.17-64.5-15.14-105.15-54.1l-5.2-5H698.92l60.1,55-4.7,1.55C753.74,894.34,742.9,897.83,725.21,897.83ZM612,843.43c37.53,33.91,72.95,44.62,96.49,47.55a121.78,121.78,0,0,0,39-1.08l-50.8-46.47Z" transform="translate(-277.62 -249.55)" style="fill:#be1622"/><path d="M588.51,640.36c1.78-2.84,16.08,86.17,16.08,86.17l-25.66,76.71S534.65,726.49,588.51,640.36Z" transform="translate(-277.62 -249.55)" style="fill:#c12625"/><path d="M579.64,810.26l-3.22-5.57c-.46-.81-11.4-20-15.76-50.18-4-27.81-2.89-70.45,25.39-115.68a3,3,0,0,1,3.14-1.37c2.55.51,3.31.67,11.09,45.62,3.68,21.28,7.14,42.77,7.17,43l.11.7Zm8.07-163c-24.18,41.71-25.05,80.64-21.32,106.38a159.7,159.7,0,0,0,12,42l23.2-69.38C597.48,700.56,590.9,661.73,587.71,647.3Z" transform="translate(-277.62 -249.55)" style="fill:#be1622"/><path d="M620.74,604.26l76.17,18.16,75.57-49.11S687.65,549.66,620.74,604.26Z" transform="translate(-277.62 -249.55)" style="fill:#c12625"/><path d="M697.45,625.53l-83.08-19.81,4.54-3.7c35.19-28.72,75.27-35.76,102.7-36.61,29.67-.91,50.76,4.86,51.64,5.11l6.19,1.72Zm-70.19-22.69,69.12,16.47,68.75-44.68a197.72,197.72,0,0,0-43.53-3.42C696.33,572,660,578.25,627.26,602.84Z" transform="translate(-277.62 -249.55)" style="fill:#be1622"/><path d="M721.71,730.11l-7.58,13.56-18.57-33.54-1.63-3H709l.42.77Zm37.34-22.93-1.63,3-29.21,53.69H725l-6.06-11.52,7.57-13.56h0l1.41-2.55,2.49-4.5L743.54,708l.43-.77Z" transform="translate(-277.62 -249.55)" style="fill:#fff"/></svg>