<svg id="Capa_1" data-name="Capa 1" xmlns="http://www.w3.org/2000/svg" viewBox="0 0 627.18 499.57"><title>#players</title><circle cx="527.58" cy="78.84" r="78.84" style="fill:#fff"/><path d="M433,711.27h0a145.15,145.15,0,0,1-37.34-97.19V534.85a51.85,51.85,0,0,1,38.21-50,52.19,52.19,0,0,0-12.83-1.6H281.69a51.84,51.84,0,0,0-51.84,51.84V614.3a145.15,145.15,0,0,0,37.34,97.19h0a116.63,116.63,0,0,0,169.62,3.83C435.51,714,434.22,712.66,433,711.27Z" transform="translate(-229.85 -303.73)" style="fill:#fff"/><path d="M653.9,710.2h0A145.13,145.13,0,0,0,691.25,613V533.78a51.85,51.85,0,0,0-38.21-50,51.66,51.66,0,0,1,12.83-1.61H805.19A51.84,51.84,0,0,1,857,534v79.24a145.11,145.11,0,0,1-37.35,97.18h0a116.63,116.63,0,0,1-169.62,3.84Q652,712.28,653.9,710.2Z" transform="translate(-229.85 -303.73)" style="fill:#fff"/><circle cx="110.2" cy="87.88" r="78.84" style="fill:#fff"/><circle cx="322.5" cy="293.48" r="197.68" style="fill:#fff"/><path d="M552.34,802.3c-113.08,0-205.08-92-205.08-205.09s92-205.08,205.08-205.08,205.09,92,205.09,205.08S665.43,802.3,552.34,802.3Zm0-399.27c-107.07,0-194.18,87.11-194.18,194.18s87.11,194.18,194.18,194.18,194.18-87.11,194.18-194.18S659.41,403,552.34,403Z" transform="translate(-229.85 -303.73)" style="fill:#be1622;stroke:#fff;stroke-miterlimit:10;stroke-width:2px"/><rect x="516.68" y="403.67" width="7" height="144.05" transform="translate(-333.53 -156.16) rotate(-14.7)" style="fill:#be1622"/><line x1="370.29" y1="266.36" x2="492.21" y2="199.9" style="fill:none;stroke:#be1622;stroke-miterlimit:10;stroke-width:7px"/><rect x="648.71" y="607.16" width="7" height="139.73" transform="translate(-510.54 489.23) rotate(-53.15)" style="fill:#be1622"/><rect x="451.6" y="718.37" width="138.36" height="7" transform="translate(-520.52 784) rotate(-78.46)" style="fill:#be1622"/><rect x="422.44" y="524.7" width="7" height="142.61" transform="translate(-418 691.71) rotate(-87.49)" style="fill:#be1622"/><polygon points="302.71 210.2 237.56 295.06 296.65 381.81 394.01 351.88 400.07 249.22 302.71 210.2" style="fill:#c12625;stroke:#be1622;stroke-miterlimit:10;stroke-width:7px"/><path d="M670.31,438.58" transform="translate(-229.85 -303.73)" style="fill:#333;stroke:#1d1d1b;stroke-miterlimit:10;stroke-width:7px"/><path d="M661.1,432.12l9.21,94.17L750,597.21S753.5,492.4,661.1,432.12Z" transform="translate(-229.85 -303.73)" style="fill:#c12625"/><path d="M753.28,604.79,667,528,656.9,425.21l6.11,4c48.6,31.7,70.62,75.7,80.54,107,10.74,33.92,10,60,10,61.12Zm-79.62-80.21,72.68,64.67a209.39,209.39,0,0,0-9.54-51.17c-9.17-28.81-29-68.75-71.49-98.86Z" transform="translate(-229.85 -303.73)" style="fill:#be1622"/><path d="M743.69,647,661.1,678.57l-36.23,102.6S708.07,755.92,743.69,647Z" transform="translate(-229.85 -303.73)" style="fill:#c12625"/><path d="M619.26,786.52l39.08-110.65,90.95-34.71-2.28,7c-18.67,57.07-50.5,91.08-73.92,109.55-25.48,20.1-46.33,26.57-47.21,26.84Zm44.6-105.26L630.69,775.2A171.79,171.79,0,0,0,669,752c21.6-17.1,50.64-48,68.93-99Z" transform="translate(-229.85 -303.73)" style="fill:#be1622"/><path d="M406.43,730.58H519L586.17,792S500.13,820.39,406.43,730.58Z" transform="translate(-229.85 -303.73)" style="fill:#c12625"/><path d="M552.12,799.77A172.23,172.23,0,0,1,531,798.45c-30.84-3.84-77.91-18.29-127-65.34l-6.29-6H520.36l72.58,66.38-5.67,1.87C586.57,795.56,573.48,799.77,552.12,799.77ZM415.33,734.08C460.66,775,503.43,788,531.87,791.5c22,2.73,38.69.43,47.13-1.31l-61.36-56.11Z" transform="translate(-229.85 -303.73)" style="fill:#be1622"/><path d="M387,488.82c2.15-3.43,19.42,104.06,19.42,104.06l-31,92.65S322,592.84,387,488.82Z" transform="translate(-229.85 -303.73)" style="fill:#c12625"/><path d="M376.3,694l-3.88-6.74c-.56-1-13.77-24.17-19.05-60.6-4.86-33.58-3.49-85.09,30.68-139.71a3.59,3.59,0,0,1,3.79-1.66c3.07.62,4,.81,13.39,55.11,4.44,25.69,8.62,51.65,8.66,51.91l.14.85Zm9.75-196.82c-29.21,50.38-30.25,97.39-25.75,128.48a192.33,192.33,0,0,0,14.52,50.7l28-83.79C397.84,561.52,389.9,514.63,386.05,497.2Z" transform="translate(-229.85 -303.73)" style="fill:#be1622"/><path d="M425.94,445.22l92,21.93,91.25-59.31S506.75,379.28,425.94,445.22Z" transform="translate(-229.85 -303.73)" style="fill:#c12625"/><path d="M518.59,470.9,418.25,447l5.48-4.48c42.5-34.68,90.91-43.18,124-44.21,35.84-1.1,61.31,5.87,62.37,6.17l7.47,2.08Zm-84.77-27.4,83.47,19.9,83-54a238.57,238.57,0,0,0-52.58-4.12C517.24,406.28,473.32,413.81,433.82,443.5Z" transform="translate(-229.85 -303.73)" style="fill:#be1622"/><path d="M547.88,597.21l-9.16,16.37-22.41-40.5-2-3.56h18.22l.52.93ZM593,569.52l-2,3.56-35.27,64.85h-3.92L544.5,624l9.15-16.37h0l1.71-3.09,3-5.42,15.87-28.69.51-.93Z" transform="translate(-229.85 -303.73)" style="fill:#fff"/></svg>