<svg id="Capa_1" data-name="Capa 1" xmlns="http://www.w3.org/2000/svg" viewBox="0 0 627.18 452.77"><title>#team</title><circle cx="319.14" cy="78.84" r="78.84" style="fill:#fff"/><circle cx="527.58" cy="85.32" r="78.84" style="fill:#fff"/><path d="M434.93,728.87h0a145.14,145.14,0,0,1-37.35-97.19V552.45a51.87,51.87,0,0,1,38.21-50,52.13,52.13,0,0,0-12.83-1.6H283.64a51.84,51.84,0,0,0-51.84,51.84V631.9a145.14,145.14,0,0,0,37.35,97.19h0a116.62,116.62,0,0,0,169.62,3.83Q436.8,731,434.93,728.87Z" transform="translate(-231.8 -314.85)" style="fill:#fff"/><path d="M655.86,727.81h0a145.15,145.15,0,0,0,37.34-97.19V551.39a51.86,51.86,0,0,0-38.21-50,52.19,52.19,0,0,1,12.83-1.6H807.14A51.84,51.84,0,0,1,859,551.61v79.23A145.15,145.15,0,0,1,821.64,728h0A116.63,116.63,0,0,1,652,731.86C653.32,730.54,654.61,729.2,655.86,727.81Z" transform="translate(-231.8 -314.85)" style="fill:#fff"/><circle cx="110.2" cy="94.36" r="78.84" style="fill:#fff"/><path d="M617.9,499.75H478.58a51.84,51.84,0,0,0-51.84,51.84v79.23A145.14,145.14,0,0,0,464.09,728h0a116.62,116.62,0,0,0,171,2.46h0a125.28,125.28,0,0,0,34.69-86.55V551.59A51.84,51.84,0,0,0,617.9,499.75ZM486.69,572.26l-3.43-6.2h31.68l.89,1.61,25.74,46.52-15.91,28.47Zm129.87,0L555.23,685h-6.8l-12.73-24.2,15.91-28.46v0l3-5.37,5.22-9.43,27.6-49.88.89-1.61H620Z" transform="translate(-231.8 -314.85)" style="fill:#fff"/></svg>
