<svg id="Capa_1" data-name="Capa 1" xmlns="http://www.w3.org/2000/svg" viewBox="0 0 640.44 706.14"><title>#tournament</title><rect x="203.59" y="642.71" width="234.86" height="63.43" rx="13.32" style="fill:#fff"/><polyline points="285.83 418.55 256.87 642.71 387.59 642.71 357.02 418.55" style="fill:#fff"/><path d="M741.26,473l1.42-214.55h132v91.72c0,1,0,25.31-15.52,52.53-14.24,24.9-44.77,57-109.38,68.76ZM756.87,272.7l-1.21,183C859.81,432.58,860.35,351,860.35,350.19V272.7Z" transform="translate(-234.19 -226.7)" style="fill:#fff"/><path d="M359.09,471.42C294.48,459.7,264,427.56,249.71,402.66c-15.56-27.22-15.53-51.57-15.52-52.53V258.41h132L367.56,473ZM248.47,272.7v77.49c0,.84.54,82.39,104.69,105.47L352,272.7Z" transform="translate(-234.19 -226.7)" style="fill:#fff"/><path d="M362.35,226.7V441.92a226.62,226.62,0,0,0,26.77,106.86h0c71.33,133.43,262.79,133,333.45-.84l1-1.85a226.68,226.68,0,0,0,26.24-105.85V226.7Zm76.41,103.58-6.11-11h56.42l1.59,2.87L536.52,405l-28.35,50.72Zm231.33,0L560.85,531.08H548.73L526.05,488l28.34-50.7,0,0,5.29-9.57L569,411l49.16-88.84,1.6-2.87H676.2Z" transform="translate(-234.19 -226.7)" style="fill:#fff"/></svg>